<svg xmlns="http://www.w3.org/2000/svg" version="1.1" xmlns:xlink="http://www.w3.org/1999/xlink" xmlns:svgjs="http://svgjs.dev/svgjs" width="1000" height="623" viewBox="0 0 1000 623"><g transform="matrix(1,0,0,1,-0.6060606060606233,0.2522267206477409)"><svg viewBox="0 0 396 247" data-background-color="#ffffff" preserveAspectRatio="xMidYMid meet" height="623" width="1000" xmlns="http://www.w3.org/2000/svg" xmlns:xlink="http://www.w3.org/1999/xlink"><defs></defs><g id="tight-bounds" transform="matrix(1,0,0,1,0.2400000000000091,-0.09999999999999432)"><svg viewBox="0 0 395.52 247.2" height="247.2" width="395.52"><g><svg></svg></g><g><svg viewBox="0 0 395.52 247.2" height="247.2" width="395.52"><g transform="matrix(1,0,0,1,75.54432,105.64613655195461)"><svg viewBox="0 0 244.43135999999998 35.90772689609077" height="35.90772689609077" width="244.43135999999998"><g><svg viewBox="0 0 244.43135999999998 35.90772689609077" height="35.90772689609077" width="244.43135999999998"><g><svg viewBox="0 0 244.43135999999998 35.90772689609077" height="35.90772689609077" width="244.43135999999998"><g><svg viewBox="0 0 244.43135999999998 35.90772689609077" height="35.90772689609077" width="244.43135999999998"><g><svg viewBox="0 0 244.43135999999998 35.90772689609077" height="35.90772689609077" width="244.43135999999998"><g><svg viewBox="0 0 244.43135999999998 35.90772689609077" height="35.90772689609077" width="244.43135999999998"><g transform="matrix(1,0,0,1,0,0)"><svg width="244.43135999999998" viewBox="3.9000000953674316 -36.5 324.2200012207031 47.63571548461914" height="35.90772689609077" data-palette-color="white"><path d="M42.1-14.95L42.1 0 39.6 0 39.6-14.5Q39.6-19.45 38.08-21.8 36.55-24.15 33.4-24.15L33.4-24.15Q30.2-24.15 27.73-21.88 25.25-19.6 24.25-16.05L24.25-16.05 24.25 0 21.75 0 21.75-14.5Q21.75-19.5 20.25-21.83 18.75-24.15 15.6-24.15L15.6-24.15Q12.4-24.15 9.93-21.93 7.45-19.7 6.4-16.1L6.4-16.1 6.4 0 3.9 0 3.9-26 6.25-26 6.25-19.8Q7.9-23 10.5-24.73 13.1-26.45 16.2-26.45L16.2-26.45Q19.45-26.45 21.53-24.53 23.6-22.6 24-19.4L24-19.4Q25.85-22.9 28.4-24.68 30.95-26.45 34.2-26.45L34.2-26.45Q36.35-26.45 37.83-25.68 39.3-24.9 40.28-23.43 41.25-21.95 41.68-19.8 42.1-17.65 42.1-14.95L42.1-14.95ZM60.55 0.5L60.55 0.5Q57.8 0.5 55.47-0.55 53.15-1.6 51.45-3.48 49.75-5.35 48.8-7.8 47.85-10.25 47.85-12.95L47.85-12.95Q47.85-15.7 48.8-18.13 49.75-20.55 51.47-22.43 53.2-24.3 55.52-25.38 57.85-26.45 60.55-26.45L60.55-26.45Q63.25-26.45 65.55-25.38 67.85-24.3 69.6-22.43 71.35-20.55 72.3-18.13 73.25-15.7 73.25-12.95L73.25-12.95Q73.25-10.25 72.3-7.8 71.35-5.35 69.62-3.48 67.9-1.6 65.57-0.55 63.25 0.5 60.55 0.5ZM50.35-12.85L50.35-12.85Q50.35-9.8 51.72-7.28 53.1-4.75 55.4-3.25 57.7-1.75 60.5-1.75L60.5-1.75Q63.3-1.75 65.62-3.28 67.95-4.8 69.32-7.38 70.7-9.95 70.7-13L70.7-13Q70.7-16.05 69.32-18.6 67.95-21.15 65.62-22.68 63.3-24.2 60.55-24.2L60.55-24.2Q57.75-24.2 55.45-22.65 53.15-21.1 51.75-18.55 50.35-16 50.35-12.85ZM100.5-14.95L100.5 0 98 0 98-14.5Q98-19.5 96.57-21.83 95.14-24.15 92.05-24.15L92.05-24.15Q89.84-24.15 87.72-23.1 85.59-22.05 84.02-20.23 82.44-18.4 81.75-16.1L81.75-16.1 81.75 0 79.25 0 79.25-26 81.59-26 81.59-19.8Q82.64-21.8 84.39-23.28 86.14-24.75 88.3-25.6 90.44-26.45 92.75-26.45L92.75-26.45Q94.89-26.45 96.37-25.68 97.84-24.9 98.77-23.45 99.69-22 100.09-19.85 100.5-17.7 100.5-14.95L100.5-14.95ZM119.09 0.5L119.09 0.5Q116.34 0.5 113.99-0.58 111.64-1.65 109.92-3.53 108.19-5.4 107.22-7.88 106.24-10.35 106.24-13.1L106.24-13.1Q106.24-16.8 107.89-19.8 109.54-22.8 112.44-24.63 115.34-26.45 118.94-26.45L118.94-26.45Q122.64-26.45 125.49-24.6 128.34-22.75 130.02-19.73 131.69-16.7 131.69-13.1L131.69-13.1Q131.69-12.8 131.69-12.5 131.69-12.2 131.64-12L131.64-12 108.84-12Q109.04-9.05 110.49-6.65 111.94-4.25 114.22-2.88 116.49-1.5 119.19-1.5L119.19-1.5Q121.89-1.5 124.29-2.9 126.69-4.3 127.64-6.5L127.64-6.5 129.84-5.9Q129.09-4.05 127.47-2.6 125.84-1.15 123.67-0.33 121.49 0.5 119.09 0.5ZM108.74-13.95L108.74-13.95 129.29-13.95Q129.09-17 127.69-19.35 126.29-21.7 124.02-23.05 121.74-24.4 118.99-24.4L118.99-24.4Q116.24-24.4 113.99-23.05 111.74-21.7 110.34-19.35 108.94-17 108.74-13.95ZM138.24 11.1L138.24 8.8Q139.04 8.85 139.66 8.83 140.29 8.8 140.59 8.6L140.59 8.6Q141.04 8.45 141.52 7.83 141.99 7.2 142.79 5.38 143.59 3.55 145.04 0L145.04 0 133.44-26 136.09-26 146.39-2.65 155.94-26 158.49-26 144.24 8.2Q143.94 9 143.41 9.63 142.89 10.25 142.14 10.63 141.39 11 140.34 11.05L140.34 11.05Q139.89 11.1 139.39 11.13 138.89 11.15 138.24 11.1L138.24 11.1ZM185.84-3.25L186.59-1.25Q186.34-1.15 185.59-0.75 184.84-0.35 183.69-0.03 182.53 0.3 181.14 0.3L181.14 0.3Q179.78 0.3 178.61-0.23 177.44-0.75 176.74-1.8 176.03-2.85 176.03-4.35L176.03-4.35 176.03-23.95 172.39-23.95 172.39-26 176.03-26 176.03-34.9 178.53-34.9 178.53-26 184.59-26 184.59-23.95 178.53-23.95 178.53-4.95Q178.64-3.5 179.59-2.78 180.53-2.05 181.78-2.05L181.78-2.05Q183.34-2.05 184.49-2.58 185.64-3.1 185.84-3.25L185.84-3.25ZM203.28-26.1L203.28-23.75Q199.78-23.65 197.16-21.68 194.53-19.7 193.48-16.25L193.48-16.25 193.48 0 190.98 0 190.98-26 193.38-26 193.38-19.6Q194.73-22.35 196.98-24.08 199.23-25.8 201.73-26.05L201.73-26.05Q202.23-26.1 202.63-26.1 203.03-26.1 203.28-26.1L203.28-26.1ZM205.68-7.5L205.68-7.5Q205.68-9.85 207.08-11.58 208.48-13.3 210.93-14.28 213.38-15.25 216.58-15.25L216.58-15.25Q218.58-15.25 220.73-14.9 222.88-14.55 224.58-13.95L224.58-13.95 224.58-16.4Q224.58-20 222.51-22.15 220.43-24.3 216.78-24.3L216.78-24.3Q214.83-24.3 212.73-23.5 210.63-22.7 208.43-21.2L208.43-21.2 207.38-23Q209.93-24.7 212.31-25.58 214.68-26.45 217.03-26.45L217.03-26.45Q221.68-26.45 224.38-23.7 227.08-20.95 227.08-16.2L227.08-16.2 227.08-3.3Q227.08-2.7 227.36-2.4 227.63-2.1 228.18-2.05L228.18-2.05 228.18 0Q227.73 0.05 227.43 0.05 227.13 0.05 226.93 0.05L226.93 0.05Q225.98-0.1 225.46-0.75 224.93-1.4 224.88-2.2L224.88-2.2 224.88-4.25Q223.08-2 220.26-0.75 217.43 0.5 214.33 0.5L214.33 0.5Q211.88 0.5 209.91-0.55 207.93-1.6 206.81-3.43 205.68-5.25 205.68-7.5ZM223.58-5.35L223.58-5.35Q224.08-6 224.33-6.6 224.58-7.2 224.58-7.7L224.58-7.7 224.58-12Q222.78-12.7 220.83-13.05 218.88-13.4 216.83-13.4L216.83-13.4Q212.93-13.4 210.51-11.85 208.08-10.3 208.08-7.65L208.08-7.65Q208.08-6 208.93-4.6 209.78-3.2 211.31-2.35 212.83-1.5 214.83-1.5L214.83-1.5Q217.63-1.5 220.01-2.58 222.38-3.65 223.58-5.35ZM245.73 0.5L245.73 0.5Q243.03 0.5 240.68-0.58 238.33-1.65 236.58-3.53 234.83-5.4 233.85-7.85 232.88-10.3 232.88-13.1L232.88-13.1Q232.88-16.85 234.53-19.85 236.18-22.85 239.08-24.65 241.98-26.45 245.68-26.45L245.68-26.45Q249.23-26.45 251.93-24.83 254.63-23.2 255.98-20.4L255.98-20.4 253.53-19.6Q252.38-21.75 250.25-22.98 248.13-24.2 245.58-24.2L245.58-24.2Q242.73-24.2 240.43-22.75 238.13-21.3 236.75-18.78 235.38-16.25 235.38-13.1L235.38-13.1Q235.38-10 236.78-7.4 238.18-4.8 240.5-3.28 242.83-1.75 245.63-1.75L245.63-1.75Q247.43-1.75 249.15-2.43 250.88-3.1 252.15-4.2 253.43-5.3 253.83-6.55L253.83-6.55 256.28-5.85Q255.63-4 254.03-2.58 252.43-1.15 250.3-0.33 248.18 0.5 245.73 0.5ZM283.48 0L280.73 0 270.58-13.9 264.43-8.25 264.43 0 261.93 0 261.93-36.5 264.43-36.5 264.43-11.05 280.28-25.95 283.13-25.95 272.28-15.4 283.48 0ZM297.72 0.5L297.72 0.5Q294.97 0.5 292.62-0.58 290.27-1.65 288.55-3.53 286.82-5.4 285.85-7.88 284.87-10.35 284.87-13.1L284.87-13.1Q284.87-16.8 286.52-19.8 288.17-22.8 291.07-24.63 293.97-26.45 297.57-26.45L297.57-26.45Q301.27-26.45 304.12-24.6 306.97-22.75 308.65-19.73 310.32-16.7 310.32-13.1L310.32-13.1Q310.32-12.8 310.32-12.5 310.32-12.2 310.27-12L310.27-12 287.47-12Q287.67-9.05 289.12-6.65 290.57-4.25 292.85-2.88 295.12-1.5 297.82-1.5L297.82-1.5Q300.52-1.5 302.92-2.9 305.32-4.3 306.27-6.5L306.27-6.5 308.47-5.9Q307.72-4.05 306.1-2.6 304.47-1.15 302.3-0.33 300.12 0.5 297.72 0.5ZM287.37-13.95L287.37-13.95 307.92-13.95Q307.72-17 306.32-19.35 304.92-21.7 302.65-23.05 300.37-24.4 297.62-24.4L297.62-24.4Q294.87-24.4 292.62-23.05 290.37-21.7 288.97-19.35 287.57-17 287.37-13.95ZM328.12-26.1L328.12-23.75Q324.62-23.65 322-21.68 319.37-19.7 318.32-16.25L318.32-16.25 318.32 0 315.82 0 315.82-26 318.22-26 318.22-19.6Q319.57-22.35 321.82-24.08 324.07-25.8 326.57-26.05L326.57-26.05Q327.07-26.1 327.47-26.1 327.87-26.1 328.12-26.1L328.12-26.1Z" opacity="1" transform="matrix(1,0,0,1,0,0)" fill="white" class="undefined-text-0" data-fill-palette-color="white" id="text-0"></path></svg></g></svg></g></svg></g></svg></g></svg></g></svg></g></svg></g><path d="M215.124 99.646L215.124 36.578 389.167 36.578 389.167 210.622 215.124 210.622 215.124 147.554 218.362 147.554 218.362 207.384 385.929 207.384 385.929 39.816 218.362 39.816 218.362 99.646Z" fill="white" stroke="transparent" data-fill-palette-color="white"></path></svg></g></svg><rect width="395.52" height="247.2" fill="none" stroke="none" visibility="hidden"></rect></g></svg></g></svg>
